<svg xmlns="http://www.w3.org/2000/svg" width="39.354" height="40.539" viewBox="0 0 39.354 40.539">
    <g id="Waiting" transform="translate(-161 -149)" opacity="0.287">
      <path id="Path_2828" data-name="Path 2828" d="M230.095,209.256v.514a5.779,5.779,0,0,1-.242.615c-.2.375-.4.748-.632,1.1q-.444.679-.939,1.325c-.23.3-.5.568-.749.855a5.834,5.834,0,0,1-1.114,1.046,2.047,2.047,0,0,0-.772.969,4.16,4.16,0,0,0-.127.478,2.379,2.379,0,0,1,.651-.214,3.665,3.665,0,0,1,.98.119,8,8,0,0,1,.9.351,1.85,1.85,0,0,1,1.01.919,4.611,4.611,0,0,1,.457,2,4.244,4.244,0,0,1-.033.629,3.407,3.407,0,0,1-.124.626,6.718,6.718,0,0,1-.275.636.982.982,0,0,1-.507.553c-.185.08-.355.2-.54.276-.127.054-.276.144-.4-.025-.037-.052-.067-.108-.1-.166-.285.074-.571.15-.857.222a8.215,8.215,0,0,1-1.937.262c-.742.008-1.485.016-2.227.034-.241.006-.482.046-.723.072-.354.039-.707.093-1.063.113-.259.014-.52-.025-.78-.024-.281,0-.563.013-.844.031-.158.01-.315.041-.473.062h-.321a1.456,1.456,0,0,0-.146-.031,1.237,1.237,0,0,1-.788-.266.819.819,0,0,0-.447-.28c-.192-.023-.385-.044-.577-.065s-.388-.046-.582-.061a4.044,4.044,0,0,0-.634-.029c-.454.037-.906.1-1.358.154-.5.062-.993.143-1.492.192-.472.046-.946.07-1.42.086-.295.01-.591-.016-.886-.02-.908-.012-1.816-.011-2.723-.038a10.649,10.649,0,0,1-1.156-.126,3.687,3.687,0,0,0-1.276.041,17.917,17.917,0,0,1-2.257.35c-.2.016-.4.062-.6.094h-.835a.515.515,0,0,0-.094-.031c-.156-.021-.312-.046-.469-.055-.307-.019-.615-.034-.923-.04-.391-.008-.783.011-1.173-.011-.321-.018-.64-.114-.96-.111a5.6,5.6,0,0,1-1.288-.189,2.9,2.9,0,0,0-1.283-.014.49.49,0,0,1-.642-.393c-.059-.46-.1-.923-.129-1.386a4.918,4.918,0,0,1,.03-.746c.024-.261.066-.521.108-.779a2.765,2.765,0,0,1,.438-1.01,2.272,2.272,0,0,1,.76-.827.874.874,0,0,1,.647-.169,2.334,2.334,0,0,0,.508.089,3.56,3.56,0,0,1,1.4.244,1.674,1.674,0,0,0,1.006.064,3.06,3.06,0,0,0,.39-.122,1.479,1.479,0,0,0-.223-.422,8.812,8.812,0,0,0-.945-.788,16.4,16.4,0,0,0-1.556-1.01c-.826-.453-1.676-.861-2.523-1.275a1.3,1.3,0,0,1-.65-.524,3.276,3.276,0,0,1-.138-.351V212.6c.075-.336.16-.671.222-1.009A7.589,7.589,0,0,1,194,210.15a4.7,4.7,0,0,1,.956-1.525,1.948,1.948,0,0,1,.681-.519,1.594,1.594,0,0,1,.762-.1c.442.047.885.088,1.327.135s.907.112,1.362.152a2.227,2.227,0,0,1,.9.285c.28.156.541.344.846.542.02-.18.035-.319.052-.458.052-.417.1-.836.162-1.25a4.775,4.775,0,0,1,.2-.9,8.831,8.831,0,0,1,.429-.842c.115-.231.214-.47.327-.7.176-.363.351-.726.539-1.083.169-.322.345-.64.535-.95.229-.373.495-.725.707-1.106a4.594,4.594,0,0,0,.48-1.305,13.456,13.456,0,0,1,.461-1.364,2.513,2.513,0,0,0,.128-.61c.016-.247-.016-.5-.025-.746a.421.421,0,0,1,.168-.369.574.574,0,0,0,.179-.2,1.545,1.545,0,0,1,.589-.7c.567-.366,1.137-.728,1.705-1.093.3-.193.609-.375.9-.585.25-.182.473-.4.715-.595.1-.084.258-.126.33-.228.165-.238.294-.5.436-.75-.379.014-.739.045-1.1.035a8.559,8.559,0,0,1-1.214-.1.95.95,0,0,1-.853-.874q-.059-.5-.086-1c-.006-.111-.032-.171-.139-.209a1.909,1.909,0,0,1-.307-.157c-.209-.121-.255-.222-.166-.448.131-.333.282-.658.421-.987a.229.229,0,0,0,.013-.131c-.089-.394-.175-.79-.28-1.18-.038-.139,0-.194.118-.216a.658.658,0,0,0,.041-.205c-.019-.137.132-.3-.05-.416-.019-.012-.011-.083,0-.121a6.992,6.992,0,0,0,.252-1.242c.038-.243.052-.524.348-.64.02-.008.026-.059.034-.091a1.058,1.058,0,0,1,.43-.692,3.493,3.493,0,0,1,1.587-.525,5.5,5.5,0,0,1,1.829.171c.69.178,1.373.386,2.055.6a7.4,7.4,0,0,1,1.668.643,4.251,4.251,0,0,1,.6.464.482.482,0,0,1,.089.237,1.094,1.094,0,0,1,.042.272c0,.1-.037.191-.041.287-.019.426-.014.854-.051,1.278a7.49,7.49,0,0,1-.178,1.133.6.6,0,0,0,.073.5,1.159,1.159,0,0,1,.073.216l-.151-.068a.9.9,0,0,1-.165.613.557.557,0,0,0-.094.222c-.025.091-.027.187-.052.277a.781.781,0,0,0,.121.559.967.967,0,0,1,.087.193c.025.116.034.235.05.359a.408.408,0,0,0,.06,0,1.287,1.287,0,0,1,1.228.542c.065.088.122.209.287.2.38-.015.762-.008,1.143,0a4.154,4.154,0,0,1,.551.034.653.653,0,0,0,.511-.05.427.427,0,0,1,.275-.044c.31.043.619.094.924.16a.7.7,0,0,1,.547.39c.036.086.03.19.062.279.172.485.366.963.523,1.452a3.056,3.056,0,0,0,.606,1.252.532.532,0,0,0,.23.177.378.378,0,0,1,.322.37c.04.344.048.692.1,1.033.058.365.153.724.239,1.084a.152.152,0,0,0,.1.087,1.045,1.045,0,0,1,.672.484,4.554,4.554,0,0,1,.3.975c.038.146.017.308.061.452.128.415.281.822.413,1.237a3.292,3.292,0,0,1,.231.885c.006.308.244.567.143.882a1.6,1.6,0,0,0-.038.19.293.293,0,0,0,.046.193.337.337,0,0,1,0,.359.132.132,0,0,0,0,.112c.163.256.343.5.5.766s.27.516.4.778c.141.286.292.568.411.864a.491.491,0,0,0,.505.337,3.98,3.98,0,0,1,.41.032q.678.076,1.356.157a4.95,4.95,0,0,1,.775.106,1.577,1.577,0,0,1,.935.672c.153.245.277.508.414.763Z" transform="translate(-30.756 -33.26)" fill="#fff"/>
      <path id="Path_2829" data-name="Path 2829" d="M166.325,189.539c-.037-.061-.1-.031-.144-.031a4,4,0,0,1-1.361-.254.367.367,0,0,0-.243-.008,1.7,1.7,0,0,1-1.056-.1,1.525,1.525,0,0,0-.7-.087c-.239.031-.478.029-.716.042a7.948,7.948,0,0,1-1.106.042c.013-.077.064-.08.116-.09.636-.116,1.272-.236,1.909-.347.085-.015.085-.03.064-.1a5.077,5.077,0,0,1,.016-2.6,5.661,5.661,0,0,1,.5-1.451,2.6,2.6,0,0,1,1.625-1.285,1.445,1.445,0,0,1,.567-.018c.1.011.125.123.216.134.132.016.072.127.095.192a6.057,6.057,0,0,1,2.035.217c-.132-.3-.427-.4-.676-.542-.819-.476-1.629-.967-2.4-1.516a15.316,15.316,0,0,1-1.734-1.329c-.067-.064-.129-.2-.268-.086a.17.17,0,0,1-.143-.09,4.558,4.558,0,0,1-.346-1.278,13.691,13.691,0,0,1-.182-1.435,8.354,8.354,0,0,1-.044-1.69,2.606,2.606,0,0,1,.434-1.07,4.855,4.855,0,0,1,1.164-1.223,1.177,1.177,0,0,1,.979-.148,12.656,12.656,0,0,1,2.59.646,11.926,11.926,0,0,1,2.144.935c.127.073.247.157.374.238a3.348,3.348,0,0,1,.173-1.465,15.806,15.806,0,0,1,.773-1.9c.23-.535.481-1.061.747-1.578.242-.471.491-.94.754-1.4a7.166,7.166,0,0,0,.934-2.433,15.932,15.932,0,0,1,.552-2.131.52.52,0,0,1,.34-.371c.139-.048.233-.1.242-.292a.591.591,0,0,1,.4-.492,7.4,7.4,0,0,0,1.061-.7q.676-.451,1.393-.832a.428.428,0,0,0,.213-.231,1.223,1.223,0,0,1,.476-.52,2.343,2.343,0,0,1,.618-.346c.045-.013.08-.049.1-.126-.114.074-.244.056-.337.143a.078.078,0,0,1-.056.025c-.144-.035-.253.074-.386.091a5.408,5.408,0,0,0-1.033.171,1.145,1.145,0,0,1-.577.011c-.232-.033-.345-.227-.435-.425a1.01,1.01,0,0,1-.077-.369c-.013-.243-.18-.432-.218-.669a3.764,3.764,0,0,1-.024-1.139c.01-.071,0-.078-.072-.089a.582.582,0,0,1-.48-.72,5.138,5.138,0,0,1,.4-1.1.224.224,0,0,0,0-.234c-.1-.186-.181-.38-.272-.569a.514.514,0,0,1-.036-.244c0-.037.016-.083,0-.111-.163-.285,0-.554.056-.818a13.1,13.1,0,0,1,.4-1.569c.013-.038.019-.06-.041-.1a.572.572,0,0,1-.3-.491,7.139,7.139,0,0,0-.117-.749,1.407,1.407,0,0,1,.015-.614c.062-.184.017-.378.087-.563a.529.529,0,0,1,.389-.356.277.277,0,0,0,.162-.083.489.489,0,0,1,.318-.187c.094-.013.143-.128.248-.157a.789.789,0,0,1,.48.038c.085.029.12,0,.14-.061a.407.407,0,0,1,.443-.3.815.815,0,0,0,.272-.113.463.463,0,0,1,.5.1.29.29,0,0,0,.272.062,2.932,2.932,0,0,1,.789-.116,2.738,2.738,0,0,1,1.222.137c.06.033.143.052.175.1.121.188.267.1.378.024a.576.576,0,0,1,.628,0,.272.272,0,0,0,.231.042.813.813,0,0,1,.76.2.366.366,0,0,0,.245.088.87.87,0,0,1,.708.253.159.159,0,0,0,.148.035.718.718,0,0,1,.622.256,1.887,1.887,0,0,0,.335.238,1.476,1.476,0,0,1,.614,1.167,1.522,1.522,0,0,1,.032.283c-.007.052.015.072.071.078.1.009.134.08.119.171-.064.4-.126.8-.2,1.195-.062.331-.142.658-.214.987a.769.769,0,0,1-.284.455.97.97,0,0,0-.256.488c-.069.207-.1.428-.151.641-.017.066-.021.094.058.106s.118.081.123.175a.439.439,0,0,1-.159.435c-.03.021-.059.059-.092.055-.161-.023-.176.091-.2.2-.082.353-.165.705-.247,1.058-.01.043-.038.1.024.125.261.113.238.316.165.546a3.118,3.118,0,0,1,.754.053.689.689,0,0,1,.518.51,1.215,1.215,0,0,1,.038.169c.011.048.034.061.091.059.815-.032,1.63-.035,2.446,0,.456.021.9.122,1.352.17.194.021.282.18.372.317a6.967,6.967,0,0,1,.867,2.285.114.114,0,0,1,0,.064c-.061.143.022.179.139.218.157.054.188.219.249.349.039.084.069.123.174.085a.221.221,0,0,1,.29.153,3.956,3.956,0,0,1,.238.948c.071.491.08.99.189,1.477.029.128.061.2.213.2.247,0,.37.183.461.379a7.809,7.809,0,0,1,.308,1c.182.591.346,1.187.5,1.785q.213.808.393,1.626c.029.132.068.292-.078.4-.048.035-.03.068-.012.109a5.57,5.57,0,0,0,.78,1.455,3.577,3.577,0,0,1,.562,1.213c.041.108.088.116.166.07a2.716,2.716,0,0,0,.412-.233,1.386,1.386,0,0,1,1.177-.212,14.674,14.674,0,0,1,1.936.43,2.98,2.98,0,0,1,.694.266c.129.075.147.135.025.23a.532.532,0,0,1,.165.153,6.391,6.391,0,0,1,.708,1.893,1.419,1.419,0,0,0,.058.435v.257c-.068.058-.021.139-.037.207a3.881,3.881,0,0,1-.588,1.3c-.271.4-.588.762-.893,1.135a13.693,13.693,0,0,1-1.489,1.529c-.535.479-1.152.856-1.679,1.357a7.656,7.656,0,0,1,1.886.569,2.242,2.242,0,0,1,1.208,1.237,4.871,4.871,0,0,1,.28,1.211,4.967,4.967,0,0,1-.154,1.916c-.075.26-.223.49-.311.741a.987.987,0,0,1-.376.491,3.754,3.754,0,0,1-.388.231c.18.015.328.018.473.041a9.855,9.855,0,0,0,1.674.159c.038,0,.1-.018.1.045,0,.041-.009.11-.084.118-.036,0-.072.029-.106.027-.48-.025-.955.058-1.433.064-.436,0-.872-.017-1.307-.021-.923-.007-1.846-.037-2.769-.039a4.278,4.278,0,0,1-.6.022,4.556,4.556,0,0,0-.776-.057c-.367.011-.735.007-1.1.025-.536.025-1.073.048-1.609.065-.628.019-1.254.073-1.883.072-.171,0-.343-.014-.513,0a7.546,7.546,0,0,1-1.129-.1.172.172,0,0,1-.058-.02,2.454,2.454,0,0,0-.925-.23c-.564-.02-1.126.027-1.69.054-.516.025-1.033.019-1.549.038-.49.018-.982,0-1.47.043-.313.027-.627.022-.94.045-.644.048-1.292.063-1.938.06-.318,0-.638-.009-.957-.019a5.589,5.589,0,0,1-.781-.045,3.073,3.073,0,0,0-.8-.008,8.451,8.451,0,0,1-1.39.007,3.357,3.357,0,0,0-.857.041c-.524.093-1.048.183-1.579.238a1.568,1.568,0,0,0-.512.056h-2.021c-.025-.053-.074-.031-.113-.031q-1.354,0-2.709,0c-.033,0-.077-.018-.1.03h-.032Zm23.762-4.385-.09.022a.8.8,0,0,0-.281.1c-.547.2-1.092.4-1.64.6-.1.035-.144.076-.137.188a3.649,3.649,0,0,1-.021.492,4.234,4.234,0,0,1-.464,1.654.257.257,0,0,0-.022.22,1.429,1.429,0,0,1,.06.547c-.005.106-.032.121-.14.106-.12-.12-.082-.3-.178-.446a2.3,2.3,0,0,1-.253.219.089.089,0,0,0-.027.127.2.2,0,0,1,.018.213l.442-.114c-.014.039-.071.049-.071.108.66-.03,1.319-.062,1.978-.089q.9-.036,1.806-.064c.661-.021,1.323-.018,1.984-.033a15.319,15.319,0,0,0,2.561-.157,2.3,2.3,0,0,0,1.481-.776.151.151,0,0,1,.169-.054.165.165,0,0,1,.074.193.6.6,0,0,1-.238.363.411.411,0,0,0-.146.145,2.083,2.083,0,0,0,.914-.265.769.769,0,0,0,.285-.24,4.329,4.329,0,0,0,.506-2.081,5.9,5.9,0,0,0-.161-1.414,2.1,2.1,0,0,0-.87-1.35,5.848,5.848,0,0,0-1.129-.53c-.353-.141-.667.034-1,.077a.61.61,0,0,0,.288.082,3.774,3.774,0,0,1,1.076.35,2.769,2.769,0,0,1,1.431,2.28,4.5,4.5,0,0,1-.317,2.161,1.822,1.822,0,0,1-.21.388c-.05.066-.1.036-.137.015s-.085-.071-.042-.126.039-.142.059-.212a7.179,7.179,0,0,0,.277-2.431,2.253,2.253,0,0,0-.866-1.6,2.586,2.586,0,0,0-1.137-.528c-.268-.066-.511-.277-.816-.174-.014,0-.039-.015-.055-.028a.185.185,0,0,0-.207,0c-.718.329-1.434.662-2.156.98-.64.282-1.287.546-1.939.8a3.318,3.318,0,0,0-.658.284Zm-11.439-24.039c-.106.091-.178.163-.259.221-.41.3-.852.541-1.275.814-.627.4-1.246.82-1.9,1.184a1.444,1.444,0,0,0-.4.284c-.1.113-.168.252-.277.357a.357.357,0,0,0-.141.3,1.114,1.114,0,0,1-.044.28c-.061.332-.2.643-.27.97-.129.569-.241,1.141-.38,1.708a9.55,9.55,0,0,1-1,2.229c-.532.987-.984,2.01-1.439,3.032a4.907,4.907,0,0,1-.624,1.171c-.056.068-.13.159-.124.232a3.1,3.1,0,0,1-.022.568,2.71,2.71,0,0,1-.137.851c-.033.078.02.075.056.095q.949.5,1.877,1.037c.888.513,1.75,1.065,2.6,1.632.78.519,1.549,1.053,2.322,1.582.029.02.057.037.087.021s.025-.056.013-.085a.615.615,0,0,1-.019-.3c.011-.137.037-.295.189-.334a.226.226,0,0,0,.15-.118,3.859,3.859,0,0,1,.564-.725,2.025,2.025,0,0,1,1.028-.59,1.7,1.7,0,0,1,.517.043,3.474,3.474,0,0,1,1.3.22c.023.012.062,0,.092-.01.533-.124,1.066-.245,1.6-.373a8.21,8.21,0,0,0,1.4-.408c.039-.017.08,0,.064-.087a.4.4,0,0,1,.195-.43,6.565,6.565,0,0,1,1.469-.725c.094-.031.116-.058.123-.152a.315.315,0,0,1,.206-.29,3.266,3.266,0,0,0,.427-.2,9.184,9.184,0,0,1,1.9-.862c.115-.036.116-.082.066-.177a3.275,3.275,0,0,1-.246-.695.236.236,0,0,1,.055-.263,1.756,1.756,0,0,0,.322-.492.238.238,0,0,0-.016-.282,3.677,3.677,0,0,1-.464-1.033.228.228,0,0,1,.083-.241c.072-.049.124.053.165.111a3.713,3.713,0,0,1,.485.883c.058.167.131.332.005.509-.143.2-.323.381-.238.68a6.144,6.144,0,0,1,.134.793c.009.061.037.064.086.06.086-.006.022-.046.016-.069-.046-.158.047-.212.176-.256a3.1,3.1,0,0,1,1.156-.088,2.789,2.789,0,0,1,.918.15c.049.02.1.036.092.089-.011.069-.079.051-.117.033a.481.481,0,0,0-.188-.022,12.292,12.292,0,0,0-1.354.066c-.061,0-.159.015-.165.062-.025.192-.186.232-.313.28-1.005.384-1.941.936-2.984,1.225-.033.009-.083-.016-.068.067a.435.435,0,0,1-.238.48q-.6.355-1.213.7c-.188.108-.188.1-.022.232a.931.931,0,0,1,.17.169,6.391,6.391,0,0,1,.487.738c.052.093.074.243.174.262a.3.3,0,0,1,.243.2c.034.08.074.071.134.036.453-.267.906-.532,1.358-.8.866-.512,1.734-1.02,2.631-1.478.6-.305,1.205-.586,1.819-.854.648-.283,1.288-.585,1.931-.881.406-.188.811-.381,1.214-.575.029-.014.109-.017.058-.089-.215-.308-.3-.679-.531-.988a7.832,7.832,0,0,1-1.075-1.971,2,2,0,0,0-.181-.44,2.824,2.824,0,0,1-.4-.922c-.113-.433-.2-.872-.334-1.3-.2-.654-.457-1.29-.606-1.961a10.609,10.609,0,0,1-.282-1.693,4.19,4.19,0,0,0-.179-1.109.225.225,0,0,0-.157-.17c-.11-.031-.221-.079-.252-.2a.294.294,0,0,0-.244-.226c-.177-.046-.352-.1-.527-.151a11.141,11.141,0,0,1-2.165-.937,8.644,8.644,0,0,1-1.861-1.34.363.363,0,0,0-.306-.134.2.2,0,0,1-.19-.076c-.143.283-.278.57-.43.848-.283.517-.593,1.019-.857,1.545a5.65,5.65,0,0,1-.913,1.375l.068-.236a1.011,1.011,0,0,1-.964-.124,3.355,3.355,0,0,1-.468-.38c-.239-.237-.548-.21-.673.049.163.034.236.113.2.236-.037.139-.146.273-.272.248-.21-.042-.247.083-.31.212-.015.031-.03.072-.073.069-.043-.073.026-.13.022-.2a1.247,1.247,0,0,1,.32-.886.723.723,0,0,1,1-.115c.2.163.391.343.6.5.157.116.269.3.488.331.1.013.177.022.223-.1s.111-.248.158-.378a7.038,7.038,0,0,1,.378-.956,15.6,15.6,0,0,1,1.3-2.192c.02-.026.074-.065.016-.1a.935.935,0,0,1-.33-.648.28.28,0,0,0-.176-.244,1.719,1.719,0,0,0-.73-.108c.041.079,0,.219.128.211.155-.01.129.083.108.16a5.159,5.159,0,0,0-.147.617,2.46,2.46,0,0,1-.607,1.13,4.825,4.825,0,0,1-1.351,1.122,6.49,6.49,0,0,1-1.482.765.1.1,0,0,0-.074.16.728.728,0,0,1,.04.426,1.967,1.967,0,0,0,.066.859,8.879,8.879,0,0,1,.2,1.3c.06.609.1,1.219.118,1.83.017.768,0,1.535-.051,2.3a9.752,9.752,0,0,0-.082.984,1.841,1.841,0,0,1-.03.3c-.063.433-.12.866-.187,1.3a2.108,2.108,0,0,1-.312,1.027,1.042,1.042,0,0,1,.447-.048c-.34.139-.637.259-.932.385-.037.016-.1.007-.1.081a2.477,2.477,0,0,1-.156.657c-.031.11-.1.236-.03.335a.253.253,0,0,1-.012.286,8.478,8.478,0,0,1-.52.938c-.1.162-.146.389-.418.394.261.2.315.159.15.489-.039.078.021.1.079.117a.636.636,0,0,1,.395.385c-.038-.005-.059,0-.067-.011a1.278,1.278,0,0,0-.581-.329c-.254-.1-.266-.116-.164-.352-.065-.019-.132-.037-.2-.058a8.187,8.187,0,0,1-1.67-.778,9.288,9.288,0,0,1-1.782-1.451c-.052-.052-.139-.113-.067-.2a.228.228,0,0,1,.254-.06.494.494,0,0,1,.1.046,9.659,9.659,0,0,1,1.053.77,15.79,15.79,0,0,0,2.423,1.4,7.76,7.76,0,0,1,.531-1.166,4.3,4.3,0,0,0,.286-.446,5.862,5.862,0,0,0,.168-.689c.046-.212.06-.414.3-.542.218-.117.26-.387.305-.613.132-.665.228-1.337.365-2,.052-.251.019-.544.262-.733.008-.006-.006-.038-.008-.058-.033-.535-.073-1.07-.1-1.606-.021-.493-.016-.986-.03-1.479-.016-.569-.048-1.138-.078-1.706a3.2,3.2,0,0,0-.031-.444c-.1-.5-.187-1-.264-1.5-.056.109-.168.125-.282.031s-.185-.176-.281-.261c-.049-.044-.1-.093-.178-.036a2.493,2.493,0,0,1-1.137.534.575.575,0,0,1-.378-.061c-.066-.038,0-.133-.089-.151a.091.091,0,0,1-.073-.143c.034-.06.089-.069.162-.029.057.032.14.04.15-.071a1.164,1.164,0,0,1,.192-.51.865.865,0,0,0,.171-.61,4.387,4.387,0,0,1-.036-.985Zm3.286-3.719a.132.132,0,0,1,0,.188,2.888,2.888,0,0,1-.291.358c-.041.04-.05.136-.14.08s-.015-.122.01-.175a1.253,1.253,0,0,0,.238-.836c-.008-.033-.008-.09.04-.09a.144.144,0,0,1,.139.087.265.265,0,0,1,.01.11c-.005.069.021.095.09.094a3.566,3.566,0,0,0,.7-.043.773.773,0,0,0,.436-.235,1.743,1.743,0,0,0,.436-1,.791.791,0,0,0-.969-.822,2.2,2.2,0,0,0-.639.3c-.363.214-.4.609-.542.947,0,.006.008.019.015.026.025.023.075.04.02.082s-.1.071-.156.046a.378.378,0,0,1-.171-.461,5.351,5.351,0,0,1,.368-.737.873.873,0,0,1,.51-.434,1.544,1.544,0,0,1,.735-.069c.244.072.261-.035.288-.216.03-.2.085-.4.1-.611a.153.153,0,0,0-.133-.181,2.2,2.2,0,0,0-.468-.088c-.139-.007-.2-.059-.17-.2a.27.27,0,0,0-.078-.223c-.058-.079-.123.006-.191-.012-.239-.063-.483-.1-.726-.15-.4-.075-.808-.147-1.212-.219-.057-.01-.117,0-.077-.1s0-.159-.12-.169c-.453-.036-.905-.089-1.359-.119a9.271,9.271,0,0,0-1.164.023c-.466.028-.925.116-1.391.134-.035,0-.064.009-.074.046a2.143,2.143,0,0,0-.165.653,6.5,6.5,0,0,1-.093.988c-.021.261-.045.262.2.268.067,0,.126.019.144.076.026.085-.237.355-.336.337-.114-.021-.111.048-.13.12a1.524,1.524,0,0,0,.033.558c.006.057.036.08.086.043.1-.073.192-.01.255.04s.039.156,0,.225c-.175.353-.358.7-.54,1.053a.351.351,0,0,1-.065.071.273.273,0,0,0,.057.46c.256.146.563.12.828.24a.261.261,0,0,1-.181.227.131.131,0,0,0-.09.133,3.131,3.131,0,0,0,.039.517,2.957,2.957,0,0,1,1.092-.04.485.485,0,0,1-.242.174,1.177,1.177,0,0,1-.4.07.619.619,0,0,0-.41.127c-.079.072.036.222.073.334.1.31.1.31.408.242.041-.009.081-.021.122-.03a.219.219,0,0,1,.22.062c.107.127.211.171.336.029.032-.037.049,0,.075.013.042.029.008.1.065.115.047-.031.021-.082.038-.117s.012-.106.081-.1.12.024.127.079c.021.148.161.177.247.254s.285,0,.344-.094c.022-.035.047-.059.09-.049s.02.049.021.077c0,.074.028.107.12.117.238.028.406-.13.609-.193a5.47,5.47,0,0,0,1.328-.634.458.458,0,0,0,.044.169c.1.123.019.181-.053.28a1.024,1.024,0,0,0-.274.656c.021.506.025,1.012.035,1.518a.137.137,0,0,0,.039.116,2.087,2.087,0,0,1,.38.507c.033.053.063.07.128.032.563-.329,1.124-.663,1.669-1.023a5.373,5.373,0,0,0,1.628-1.54c.025-.038.086-.072.04-.133a1.961,1.961,0,0,1-.161-.333c-.209.236-.407.456-.6.681-.035.041-.055.087-.1.031a1.327,1.327,0,0,0-.26-.19.251.251,0,0,1-.029-.426.2.2,0,0,0,.127-.193.154.154,0,0,1,.027-.073,4.121,4.121,0,0,1,.4-.637.152.152,0,0,0,.022-.188c-.106-.206-.189-.424-.3-.627a.952.952,0,0,1-.168-.453c.015-.211-.055-.111-.143-.083a1.949,1.949,0,0,1-.913.129Zm-15.848,26.209a11.718,11.718,0,0,0-.936.966,4.315,4.315,0,0,0-.967,2.705,7.478,7.478,0,0,0,.138,1.156c.006.048.03.048.062.05a2.38,2.38,0,0,1,.572.164,8.775,8.775,0,0,0,1.1.282,10.26,10.26,0,0,0,1.371.094c.671.02,1.341.032,2.011.065.544.026,1.088,0,1.631-.028.322-.015.645-.034.965-.066.462-.046.922-.108,1.384-.156.227-.024.26-.036.219-.247-.024-.124.02-.26-.083-.376a4.03,4.03,0,0,1-.929-2.517,3.008,3.008,0,0,1,.186-1.236c.033-.09.025-.14-.074-.18-.251-.1-.5-.212-.745-.322a.46.46,0,0,0-.305-.036,18.357,18.357,0,0,1-2.066.3,3.8,3.8,0,0,0-.715.106.4.4,0,0,1,.2.164,3.209,3.209,0,0,1,.429.946c.026.085.061.1.133.063a1.7,1.7,0,0,1,.388-.126c.415-.1.836-.166,1.258-.223a4.235,4.235,0,0,1,.887-.065c.092.007.2,0,.237.127.045.165,0,.21-.212.225-.279.021-.558.044-.835.087-.334.052-.67.086-1,.138-.212.033-.424.075-.638.1-.066.008-.124.024-.1.144a4.058,4.058,0,0,1-.024,1.8,1.842,1.842,0,0,1-.253.594c-.037.056-.09.107-.159.081s-.035-.093-.028-.141c.031-.219.064-.438.1-.656a4.339,4.339,0,0,0,.016-1.367,7.817,7.817,0,0,0-.416-1.541c-.039-.108-.037-.27-.11-.317s-.234-.006-.355,0c-.053,0-.106-.005-.159,0a3.262,3.262,0,0,1-.766-.167,10.422,10.422,0,0,1-1.242-.283c-.12-.041-.216-.089-.165-.291Zm11.178-1.035a1.368,1.368,0,0,0,.56-.073c.593-.14,1.178-.309,1.774-.435a4.029,4.029,0,0,0,1.22-.436c.4-.234.769-.517,1.147-.786a10.765,10.765,0,0,1,.9-.655q1.3-.733,2.592-1.476c.089-.051.088-.095.042-.157-.117-.157-.241-.309-.361-.465a.08.08,0,0,0-.13-.019,3.413,3.413,0,0,1-.459.284,6.376,6.376,0,0,1-1.245.5.314.314,0,0,1-.342-.053,6.72,6.72,0,0,1-.731-.78.1.1,0,0,0-.119-.049c-.22.051-.441.1-.662.146-.187.037-.4.108-.56,0a1.271,1.271,0,0,0-.516-.146c-.142-.027-.285-.005-.429-.031a1.086,1.086,0,0,0-.941.186,11.168,11.168,0,0,0-1.214,1.086.186.186,0,0,1-.242.064c-.026-.012-.054-.046-.08,0a.054.054,0,0,0,.012.072,2.7,2.7,0,0,1,.384.631c.234-.233.46-.468.7-.692a3.916,3.916,0,0,1,.553-.453.223.223,0,0,1,.274.028c.091.083-.034.134-.08.186-.332.375-.69.725-1.044,1.079-.16.16-.154.152.025.293a.176.176,0,0,0,.28-.012,5.233,5.233,0,0,1,.471-.376,4.218,4.218,0,0,1,.649-.395c.042-.021.093-.037.128,0s-.022.071-.044.1a1.912,1.912,0,0,1-.369.347,7.306,7.306,0,0,1-.71.471c-.094.057-.1.066-.043.1a4.122,4.122,0,0,0,.737.377c-.052-.1-.1-.191,0-.268a3.714,3.714,0,0,1,.967-.521c.109-.039.182.031.242.109s0,.148-.045.2a2.148,2.148,0,0,1-1.058.544,4.219,4.219,0,0,0,1.1.348c-.069.082-.129.208-.168.218a5.64,5.64,0,0,1-.561.215,16.767,16.767,0,0,0-2.34.55.429.429,0,0,0-.258.148Zm-11.633,1a1.986,1.986,0,0,0-1.687,1.222,7.62,7.62,0,0,0-.407,1.389,4.65,4.65,0,0,0-.122,1.15,7.1,7.1,0,0,0,.179,1.331.162.162,0,0,0,.127.139c.111.032.223.059.335.088.094.024.186-.043.169-.1-.034-.111-.024-.225-.057-.335a4.247,4.247,0,0,1-.252-1.865,5.2,5.2,0,0,1,.424-1.465,4.39,4.39,0,0,1,1.292-1.554Zm12.756-20.083c.067.015.121.083.182.01a7.052,7.052,0,0,1,.741-.653c.312-.28.5-.267.768.052a2.342,2.342,0,0,1,.318.431.839.839,0,0,1,.075-.355c.051-.074.023-.114-.031-.161a1.309,1.309,0,0,1-.33-.405c-.106-.219-.3-.379-.353-.638-.1-.482-.211-.961-.3-1.454-.054.017-.062.06-.073.089-.08.217-.15.438-.233.654a.882.882,0,0,0-.041.464,2.335,2.335,0,0,1,0,.591.581.581,0,0,1-.1.347,2.241,2.241,0,0,0-.23.362,3.755,3.755,0,0,1-.4.665Zm4.009,14.433c.192.272.378.535.563.8.042.06.087.034.138.015.211-.078.422-.154.635-.226.408-.137.809-.289,1.2-.463.1-.044.1-.081.032-.157-.121-.134-.229-.28-.348-.416-.186-.212-.187-.209-.433-.086A9.431,9.431,0,0,1,182.4,177.918Zm2.7,7.865c-2.283.83-4.53,1.725-6.856,2.488a.56.56,0,0,0,.273.01c.253-.062.507-.121.755-.2.864-.277,1.711-.6,2.553-.938q1.079-.431,2.155-.871c.377-.155.747-.325,1.12-.488Zm2.353-7.092c2.168-.994,4.36-1.938,6.451-3.092C191.749,176.635,189.553,177.571,187.446,178.691ZM166.4,175.586c.142.126,5.368,3.089,5.481,3.1-.029-.022-.049-.039-.07-.053q-1.461-.88-2.922-1.759c-.758-.454-1.526-.89-2.319-1.281-.051-.025-.109-.077-.17-.01Zm10.565,6.754a2.294,2.294,0,0,0-.948-.074,12.788,12.788,0,0,0-1.346.187,3.612,3.612,0,0,0-.552.129c-.031.011-.061.03-.055.068s.041.028.065.024c.257-.032.517-.051.771-.1a13.146,13.146,0,0,1,1.8-.21c.081,0,.1.01.088.1a2.377,2.377,0,0,0,.092.751c.025-.146-.035-.288-.006-.435s-.039-.3.092-.434Zm6.775-23.159c.375-.542.4-.688.182-.945a.566.566,0,0,0-.042.6c-.106,0-.1-.084-.137-.1-.208.144-.142.3,0,.444Zm-.244.452a1.446,1.446,0,0,0-.258-.272,1.569,1.569,0,0,0-.2.293.226.226,0,0,0,.279.189A.273.273,0,0,0,183.5,159.632Zm5.871,2.244a2.757,2.757,0,0,0-.265-.64.072.072,0,0,0-.091-.044c-.037.012-.036.051-.037.08a.881.881,0,0,0,.175.542c.013.018.05.055.079.024.077-.08.065.049.139.038Zm3.146,4.766c-.057-.2-.1-.374-.156-.539a.248.248,0,0,0-.186-.175c-.079-.018-.116,0-.126.078-.008.061.175.354.222.335.153-.062.112.086.154.134S192.431,166.58,192.512,166.643ZM172.3,183.727l.541.214a1.29,1.29,0,0,1-.107-.454C172.55,183.491,172.466,183.651,172.3,183.727Zm17.482-22.955c-.039-.108-.066-.192-.1-.272-.051-.122-.063-.266-.207-.335-.045-.022-.08-.055-.125-.012s-.026.082,0,.126c.1.141.2.283.3.424C189.675,160.74,189.717,160.748,189.78,160.772Zm-.425-.967-.035-.038a3.217,3.217,0,0,0-.7.474c-.022.02-.076.041-.042.086s.073.035.112,0l.669-.526Zm-5.857-.757a.273.273,0,0,0-.039.375c.027.04.051.082.078.126A.37.37,0,0,0,183.5,159.047Zm2.909,27.055-1.153.317.011.039a4.5,4.5,0,0,0,1.141-.356Zm-13.125-2.618c-.272.061-.31.127-.268.423Zm15.211-22.633c.14,0,.085-.126.137-.179s0-.094-.033-.133-.087-.012-.125.011-.053.067-.023.119a.327.327,0,0,1,.044.183Zm-1.323-.956a.2.2,0,0,0-.148.163.093.093,0,0,0,.12.092c.056-.013.142-.022.141-.1S187.17,159.98,187.17,159.9Zm.853.39c-.079.018-.2,0-.217.092-.014.066.1.086.159.094.077.011.126-.055.141-.134s-.052-.036-.083-.054Zm-19.882,15.586a.407.407,0,0,0-.129.415A.457.457,0,0,0,168.141,175.872Zm19.881-15.125a1.968,1.968,0,0,0-.456.39A1.528,1.528,0,0,0,188.022,160.747Zm-3.48-4.455c0-.044-.028-.076-.069-.073-.085.006-.076.082-.1.139s.058.075.062.074c.072-.018.059-.1.1-.141Zm-3.4,7.305c.064-.014.113-.027.163-.036.031-.005.068,0,.063-.047,0-.029.011-.07-.032-.078a.116.116,0,0,0-.088.012,1.114,1.114,0,0,0-.107.148Z" transform="translate(0 0)"/>
      <path id="Path_2830" data-name="Path 2830" d="M718.877,841.737c.3-.052.589-.117.886-.153a6.31,6.31,0,0,1,1.663-.049c.059.008.12,0,.1.093s-.026.161-.13.162a6.059,6.059,0,0,0-.629.066c-.381.042-.762.089-1.144.124-.237.022-.475.028-.713.034-.063,0-.149.04-.187-.04s.01-.151.059-.215l.09-.023Z" transform="translate(-528.789 -656.583)"/>
      <path id="Path_2831" data-name="Path 2831" d="M408.839,501.87c.1-.374.127-.725.2-1.071.087-.422.2-.838.3-1.254.226-.873.463-1.743.7-2.613.113-.419.232-.837.352-1.254.019-.065,0-.17.129-.154s.221.059.225.211a3.528,3.528,0,0,1-.141.95c-.232.926-.46,1.853-.755,2.762-.167.514-.314,1.035-.47,1.552-.1.322-.134.659-.26.973-.02.05.005.078.034.112a.784.784,0,0,1,.174.37c.012.065.05.177-.038.2a.229.229,0,0,1-.235-.1.492.492,0,0,1-.1-.2c-.009-.135-.192-.148-.181-.286a.061.061,0,0,0-.039-.007c-.107.057-.171-.016-.23-.082a3.667,3.667,0,0,0-.277-.346.115.115,0,0,1,0-.16.133.133,0,0,1,.164-.012.874.874,0,0,1,.44.409Z" transform="translate(-234.38 -328.551)"/>
      <path id="Path_2832" data-name="Path 2832" d="M572.29,502.93c0,.239,0,.416,0,.592,0,.036-.027.09.035.107.038.01.084.013.044.066a.068.068,0,0,1-.12,0,.564.564,0,0,1-.116-.273,7.1,7.1,0,0,1-.042-1.108,9.492,9.492,0,0,1,.038-1.02c.06-.451.07-.906.121-1.357.029-.257.046-.516.072-.774a3.289,3.289,0,0,1,.132-.662c.012-.038.023-.089.073-.1s.077.027.089.073c.022.084.083.089.158.088.716-.014,1.432.019,2.147.047.583.024,1.165.054,1.748.082.132.006.264.017.4.023.031,0,.071-.006.076.033a.069.069,0,0,1-.062.078,1.278,1.278,0,0,1-.26.053c-.554-.014-1.107-.037-1.661-.057-.037,0-.075-.006-.112,0-.534.022-1.066-.028-1.6-.043a3.7,3.7,0,0,1-.745-.045c-.065-.015-.085.007-.092.068-.047.448-.1.895-.131,1.344-.029.429-.081.855-.122,1.283-.013.142-.026.287-.029.428-.007.379-.07.756-.039,1.072Z" transform="translate(-389.768 -331.286)"/>
      <path id="Path_2833" data-name="Path 2833" d="M431.573,551.982c-.119,0-.152-.06-.085-.171a9.063,9.063,0,0,1,.692-.946c.382-.48.775-.949,1.167-1.422.335-.4.675-.806,1.013-1.209a.27.27,0,0,1,.055-.056c.037-.023.072-.076.122-.028s0,.082-.02.113c-.243.4-.523.78-.8,1.158-.379.513-.766,1.02-1.154,1.525-.226.294-.46.58-.693.868a.378.378,0,0,1-.294.169Z" transform="translate(-256.427 -378.43)"/>
      <path id="Path_2834" data-name="Path 2834" d="M689.263,421.982c.117-.524.181-1.043.316-1.549a7.82,7.82,0,0,1,1.224-2.625,3.483,3.483,0,0,1,.424-.492.9.9,0,0,1,.193-.139c.052-.028.115-.059.161-.009s-.024.086-.047.12c-.231.349-.476.688-.7,1.04a10.848,10.848,0,0,0-1.32,3.006c-.042.158-.083.316-.134.471-.02.061-.021.142-.117.177Z" transform="translate(-500.866 -254.235)"/>
      <path id="Path_2835" data-name="Path 2835" d="M643.385,516.611v-.893q0-.765.067-1.527a2.122,2.122,0,0,1,.082-.351c.007-.027.012-.071.055-.067s.05.046.052.084c0,.021,0,.043,0,.064,0,.634.011,1.268-.035,1.9-.018.252-.055.5-.1.753a.234.234,0,0,0,.085.261c.031.023.081.057.037.1s-.062-.015-.09-.034c0,0-.007-.011-.011-.011-.257.005-.245-.273-.4-.386a2.35,2.35,0,0,1-.468-.476,2.726,2.726,0,0,1-.3-.385c-.026-.049-.054-.1.031-.14s.088-.007.128.052a8.5,8.5,0,0,0,.864,1.054Z" transform="translate(-456.372 -345.855)"/>
      <path id="Path_2836" data-name="Path 2836" d="M712.316,497.974a2.171,2.171,0,0,1-.17.847,14.753,14.753,0,0,1-.712,1.65c-.12.254-.239.509-.384.753.4-1.053.74-2.125,1.146-3.175a.119.119,0,0,1,.12-.076Z" transform="translate(-521.523 -330.875)"/>
      <path id="Path_2837" data-name="Path 2837" d="M376.394,635.037c.117,0,.267-.022.28.08.01.083-.148.053-.229.068-.541.1-1.082.2-1.619.322a3.112,3.112,0,0,1-.355.065.134.134,0,0,1-.143-.08c-.028-.072.026-.106.08-.131a2.59,2.59,0,0,1,.7-.187c.433-.068.869-.11,1.288-.137Z" transform="translate(-202.258 -460.829)"/>
      <path id="Path_2838" data-name="Path 2838" d="M432.364,456.081a2.83,2.83,0,0,1-.459-.679,10.321,10.321,0,0,1-.707-1.321c-.021-.051-.071-.12-.011-.156s.106.027.143.075a7.377,7.377,0,0,1,.632,1.047c.126.232.238.472.35.712a.39.39,0,0,1,.051.323Z" transform="translate(-256.148 -289.102)"/>
      <path id="Path_2839" data-name="Path 2839" d="M557.453,496.64a3.36,3.36,0,0,1,.057-.942c.046-.246.023-.494.058-.74.085-.585.059-1.176.1-1.763,0-.051,0-.129.064-.129.084,0,.062.083.062.136a10.992,10.992,0,0,1-.033,1.34,10.5,10.5,0,0,1-.247,1.81c-.028.09-.035.192-.059.287Z" transform="translate(-375.881 -326.222)"/>
      <path id="Path_2840" data-name="Path 2840" d="M587.7,601.764a7.427,7.427,0,0,1-1.148-.124c-.1-.028-.129-.075-.113-.169s.1-.066.151-.06c.268.029.536.066.8.1a7.494,7.494,0,0,0,1,.061,1.127,1.127,0,0,1,.128,0,.072.072,0,0,1,.058.067c.008.043-.024.048-.057.058a.986.986,0,0,1-.252.032C588.1,601.74,587.924,601.753,587.7,601.764Z" transform="translate(-403.372 -428.937)"/>
      <path id="Path_2841" data-name="Path 2841" d="M714.429,577a21.321,21.321,0,0,1,2.044-.892A3.587,3.587,0,0,1,714.429,577Z" transform="translate(-524.727 -404.958)"/>
      <path id="Path_2842" data-name="Path 2842" d="M382.084,619.811c.048-.128.088-.163.272-.172a3.146,3.146,0,0,1,1.582.369c.036.018.1.034.076.082s-.078.022-.124.006a5.4,5.4,0,0,0-1.249-.239,2.033,2.033,0,0,0-.557-.045Z" transform="translate(-209.618 -446.227)"/>
      <path id="Path_2843" data-name="Path 2843" d="M713.294,606.771c-.087.006-.154-.111-.123-.2.056-.15.2-.215.31-.306.156-.126.329-.232.5-.344a.564.564,0,0,1,.115-.05c.061-.023.082.034.114.063s0,.069-.022.092a7.886,7.886,0,0,1-.842.713C713.324,606.755,713.305,606.764,713.294,606.771Z" transform="translate(-523.527 -433.175)"/>
      <path id="Path_2844" data-name="Path 2844" d="M740.846,587.85a.758.758,0,0,1-.382.316,2.921,2.921,0,0,1-.749.236c-.08.016-.2.028-.222-.059s.088-.109.168-.131a6.167,6.167,0,0,0,1.056-.343.583.583,0,0,1,.13-.019Z" transform="translate(-548.489 -416.09)"/>
      <path id="Path_2845" data-name="Path 2845" d="M549.866,589.042a5.842,5.842,0,0,0,.277-1.594,1.031,1.031,0,0,1,.067.449,9.2,9.2,0,0,1-.112.926c-.026.194-.068.237-.232.219Z" transform="translate(-368.699 -415.709)"/>
      <path id="Path_2846" data-name="Path 2846" d="M556.337,435.853c-.084-.313-.12-.634-.178-.951-.021-.119-.045-.238-.061-.357-.006-.049-.029-.125.032-.142s.076.05.094.1a3.108,3.108,0,0,1,.119.6,2.964,2.964,0,0,1,.039.666c0,.029.009.066-.045.081Z" transform="translate(-374.599 -270.6)"/>
      <path id="Path_2847" data-name="Path 2847" d="M534.945,624.083a1.275,1.275,0,0,1-.144,1.039A4.98,4.98,0,0,1,534.945,624.083Z" transform="translate(-354.415 -450.444)"/>
      <path id="Path_2848" data-name="Path 2848" d="M538.8,238.192a.333.333,0,0,0,.331.072.889.889,0,0,1,.077-.557c.021-.071.047-.085.126-.048a.733.733,0,0,0,.39.076.164.164,0,0,1,.189.18c-.027.2-.065.394-.109.588a.152.152,0,0,1-.189.123.406.406,0,0,0-.412.143.24.24,0,0,1-.292.066.841.841,0,0,1-.555-.521c-.029-.106-.135-.163-.152-.273s-.08-.207.1-.235c.067-.011.123-.08.19-.107a.3.3,0,0,1,.432.332c-.006.085-.058.118-.124.161Zm.5.132c-.074.08-.219.135-.092.284a.237.237,0,0,0,.089-.288c.033.012.064.069.1.007.029-.047.082-.086.062-.151a.075.075,0,0,0-.047-.039c-.04-.012-.032.025-.042.047-.021.048-.047.093-.071.14Zm.39.254c.011-.16-.047-.308-.03-.463.025-.236,0-.251-.232-.3-.093-.022-.115,0-.119.081s-.006.128.1.125c.147,0,.191.057.148.2a2.382,2.382,0,0,1-.135.3l.266.054Zm-.759.1c0-.048-.006-.09-.006-.131s0-.084-.061-.089-.062.034-.071.079c-.018.1.132.266.234.244a.137.137,0,0,0,.113-.133c-.01-.063-.021-.167-.1-.176-.1-.011-.036.086-.056.132-.01.023,0,.053-.055.075Zm-.382-.392c.122-.028.137-.115.113-.217a.069.069,0,0,0-.1-.048c-.034.012-.072.039-.042.083S538.521,238.228,538.549,238.283Zm-.1-.447c.1.027.151.123.243.064.029-.019.007-.064-.02-.1-.078-.089-.133-.022-.223.031Z" transform="translate(-357.621 -84.042)"/>
      <path id="Path_2849" data-name="Path 2849" d="M470.067,252.107a6.6,6.6,0,0,0-1.016.057c-.085.011-.151-.011-.154-.125-.007-.208.038-.293.237-.354a1.69,1.69,0,0,1,1.294.074.36.36,0,0,1,.162.167c.059.117.007.186-.117.182s-.246,0-.4,0Z" transform="translate(-291.928 -97.271)"/>
      <path id="Path_2850" data-name="Path 2850" d="M564.693,271.764a.781.781,0,0,0-.594.145c-.05.026-.056.058-.028.116a1.7,1.7,0,0,1,.1.281.137.137,0,0,1-.072.162c-.074.046-.1-.024-.143-.061a.389.389,0,0,1-.041-.065c-.128-.183-.13-.185-.268-.014-.028.034-.047.083-.093.052s-.025-.079-.011-.119a1.146,1.146,0,0,1,.562-.639.59.59,0,0,1,.486-.066.216.216,0,0,1,.138.121C564.763,271.751,564.74,271.771,564.693,271.764Z" transform="translate(-381.652 -116.174)"/>
      <path id="Path_2851" data-name="Path 2851" d="M478.1,274.539a.294.294,0,0,1-.188.126c-.186.025-.258.151-.3.307a.309.309,0,0,1-.247.216c-.11.032-.174,0-.2-.112a1.761,1.761,0,0,1-.03-.2c0-.041.006-.069-.054-.09-.1-.036-.107-.139-.011-.181.167-.073.317-.188.532-.11a1.947,1.947,0,0,0,.5.046Z" transform="translate(-299.617 -118.96)"/>
      <path id="Path_2852" data-name="Path 2852" d="M533.633,228.848a.3.3,0,0,1,.087.323c-.054.34.007.682-.032,1.02a.891.891,0,0,0,.225.69,4.755,4.755,0,0,1,.4.609.558.558,0,0,1,.056.306c0,.1-.069.119-.15.126s-.107-.05-.109-.12c0-.05-.038-.1,0-.151.167-.236-.041-.368-.146-.528,0,0,0-.011-.008-.014-.409-.265-.39-.668-.356-1.08.012-.148,0-.3,0-.448a2.165,2.165,0,0,1,0-.367,3.254,3.254,0,0,0,.032-.365Z" transform="translate(-353.255 -75.707)"/>
      <path id="Path_2853" data-name="Path 2853" d="M572.506,346.24c-.08-.272-.2-.528-.3-.792a.15.15,0,0,1,.072-.212c.137-.069.269-.148.407-.214.03-.014.079-.069.11-.014.022.039-.016.079-.055.1a3.452,3.452,0,0,1-.328.193c-.106.048-.139.092-.091.214a2.918,2.918,0,0,1,.185.723Z" transform="translate(-389.864 -185.82)"/>
      <path id="Path_2854" data-name="Path 2854" d="M583,285.221a.652.652,0,0,1-.194.44c-.032.024-.066.051-.1.028s-.026-.072-.013-.1c.055-.137.115-.272.176-.406.018-.04.029-.1.094-.084S582.988,285.168,583,285.221Z" transform="translate(-399.815 -129.033)"/>
      <path id="Path_2855" data-name="Path 2855" d="M464.331,306.936c0,.016,0,.027,0,.038-.01.1,0,.244-.1.253s-.053-.145-.089-.222a.224.224,0,0,1,0-.226c.022-.034.022-.086.079-.086s.07.053.093.093a.335.335,0,0,1,.019.15Z" transform="translate(-287.39 -149.513)"/>
      <path id="Path_2856" data-name="Path 2856" d="M539.024,230.572c.081,0,.149.006.15.106,0,.124-.09.141-.179.151s-.117-.035-.109-.115.041-.153.138-.143Z" transform="translate(-358.288 -77.34)"/>
      <path id="Path_2857" data-name="Path 2857" d="M573.92,246.024c.078-.012.177,0,.176.083,0,.1-.11.1-.2.109s-.16-.02-.16-.092C573.739,246.021,573.834,246.015,573.92,246.024Z" transform="translate(-391.334 -91.988)"/>
      <path id="Path_2858" data-name="Path 2858" d="M582.47,362.749c-.015.145-.458.443-.716.45A2.371,2.371,0,0,0,582.47,362.749Z" transform="translate(-398.933 -202.663)"/>
      <path id="Path_2859" data-name="Path 2859" d="M548.9,231.435a.208.208,0,0,1,.118.169c.005.028,0,.083-.038.066a.261.261,0,0,1-.147-.157c-.011-.039.023-.066.067-.079Z" transform="translate(-367.721 -78.159)"/>
      <path id="Path_2860" data-name="Path 2860" d="M573.088,251.764a.529.529,0,0,1,.423.034C573.367,251.843,573.23,251.769,573.088,251.764Z" transform="translate(-390.716 -97.405)"/>
      <path id="Path_2861" data-name="Path 2861" d="M573.146,253.675a.348.348,0,0,1-.039.011c-.082.005-.168.016-.223-.066a.061.061,0,0,1,.019-.051.265.265,0,0,1,.243.106Z" transform="translate(-390.522 -99.143)"/>
      <path id="Path_2862" data-name="Path 2862" d="M543.844,259.413c.019-.025.023-.055.07-.041s.133.032.143.1c.007.047-.054.037-.088.037a.128.128,0,0,1-.125-.1Z" transform="translate(-362.989 -104.645)"/>
      <path id="Path_2863" data-name="Path 2863" d="M544.138,264.192c0,.052-.035.058-.072.054a.105.105,0,0,1-.092-.094c-.007-.062.05-.048.088-.055C544.147,264.083,544.114,264.158,544.138,264.192Z" transform="translate(-363.112 -109.126)"/>
      <path id="Path_2864" data-name="Path 2864" d="M686.313,823.579c-.183.219-.419.186-.626.2-.59.04-1.182.048-1.773.073-.372.016-.744.046-1.116.06a7.272,7.272,0,0,1-1.3-.071c0-.081.061-.1.122-.118a3.686,3.686,0,0,1,.722-.1c.226-.024.452-.045.679-.064.067-.006.055-.03.044-.082-.05-.22-.093-.442-.133-.664a.657.657,0,0,1,.019-.3c.051-.183.189-.156.314-.139s.135.122.137.215c.006.251,0,.5,0,.754,0,.2,0,.2.193.182a17.792,17.792,0,0,1,2.168-.1h.128c.3,0,.4-.082.424-.389a8.645,8.645,0,0,1,.508-2.183,2.021,2.021,0,0,1,.1-.23c.023-.047.024-.139.1-.119a.17.17,0,0,1,.11.19,2.874,2.874,0,0,1-.081.5c-.125.585-.248,1.17-.344,1.761a5.441,5.441,0,0,0-.1.848.915.915,0,0,0,.1.458c.016.03.049.059.008.1s-.069,0-.1-.015c-.149-.084-.175-.245-.228-.385a1.14,1.14,0,0,1-.073-.388Z" transform="translate(-493.5 -636.683)"/>
      <path id="Path_2865" data-name="Path 2865" d="M802.944,822.786a3.813,3.813,0,0,1,.127-1.1c.008-.03.024-.058.03-.089a.147.147,0,0,1,.166-.116c.084.008.067.1.059.158a7.02,7.02,0,0,0-.029,1.036,8.9,8.9,0,0,0,.289,2.25c.021.081.056.158.084.237.02.056.065.107-.026.156s-.118-.015-.156-.069a2.454,2.454,0,0,1-.347-.869,6.178,6.178,0,0,1-.2-1.6Z" transform="translate(-608.651 -637.607)"/>
      <path id="Path_2866" data-name="Path 2866" d="M696.289,903.755c-.02.051-.066.052-.107.049a7.321,7.321,0,0,0-.893.037c-.46.026-.918.071-1.376.116-.074.007-.116-.032-.186-.041a8.112,8.112,0,0,1,2.563-.162Z" transform="translate(-505.098 -715.582)"/>
      <path id="Path_2867" data-name="Path 2867" d="M730.158,859.663c.006.062-.006.137-.058.153-.071.022-.09-.059-.11-.111-.056-.148-.114-.3-.157-.448-.028-.1.038-.19.07-.281.016-.045.069-.045.113-.038s.062.059.07.094c.047.207.021.423.071.63Z" transform="translate(-539.326 -673.117)"/>
      <path id="Path_2868" data-name="Path 2868" d="M294.829,838.426a5.4,5.4,0,0,0,.072-.641,7.98,7.98,0,0,0-.212-1.611c-.036-.18-.074-.359-.11-.539a.282.282,0,0,1,.058-.193c.055-.1.136-.095.187.007a3.562,3.562,0,0,1,.3.974,3.768,3.768,0,0,1,.036,1.239,1.514,1.514,0,0,1-.186.648A.213.213,0,0,1,294.829,838.426Z" transform="translate(-126.648 -650.773)"/>
      <path id="Path_2869" data-name="Path 2869" d="M331.746,858.582a.53.53,0,0,1,.342-.154q.468-.112.942-.191c.1-.017.113-.046.085-.129a5.346,5.346,0,0,1-.264-1c0-.037-.014-.073-.016-.109,0-.087,0-.208.078-.223s.168.07.209.161a2.251,2.251,0,0,1,.128.632,4.128,4.128,0,0,0,.093.541c.013.047.016.075.077.066a.748.748,0,0,0,.334-.079c.054-.036.119-.044.154.017s-.04.084-.081.1a1.392,1.392,0,0,1-.324.12c-.052.011-.134.017-.1.121.02.055-.044.09-.073.054-.153-.191-.324-.047-.481-.029-.344.039-.684.124-1.032.133-.024,0-.054.01-.076-.031Z" transform="translate(-161.891 -671.063)"/>
      <path id="Path_2870" data-name="Path 2870" d="M340.144,901.026a.3.3,0,0,1-.169.216,8.18,8.18,0,0,1-2.016.74c-.03.007-.1.082-.125-.018-.018-.078.046-.1.1-.122q.379-.154.76-.3c.421-.165.831-.357,1.263-.493A.7.7,0,0,1,340.144,901.026Z" transform="translate(-167.66 -713.024)"/>
      <path id="Path_2871" data-name="Path 2871" d="M371.21,860.25v-.257a.28.28,0,0,1,.106-.222c.04-.034.085-.076.137-.06s.026.09.048.123c.106.156.047.268-.057.4-.048.06-.036.172-.041.262a.129.129,0,0,1-.133.131c-.1,0-.054-.085-.058-.134-.007-.08,0-.16,0-.24Z" transform="translate(-199.304 -673.849)"/>
      <path id="Path_2872" data-name="Path 2872" d="M342.013,872.591a.175.175,0,0,1-.03.05c-.022.019-.039,0-.052-.017a1.3,1.3,0,0,1-.187-.214c-.028-.044-.014-.065.014-.093s.07-.036.093,0C341.907,872.4,341.957,872.5,342.013,872.591Z" transform="translate(-171.355 -685.779)"/>
      <path id="Path_2873" data-name="Path 2873" d="M604.59,700.15a.852.852,0,0,1,.279.433c-.1.019-.106-.152-.2-.081s.042.134-.013.219c-.079-.17-.239-.288-.235-.523.05.074.087.122.116.175s.032.07.091.036.05-.047.023-.094A.208.208,0,0,1,604.59,700.15Z" transform="translate(-420.422 -522.566)"/>
      <path id="Path_2874" data-name="Path 2874" d="M610.207,697.921c.084.013.157.087.138-.033a.455.455,0,0,0-.084-.2c-.035-.047-.086-.1-.141-.085s.017.083-.015.123c-.01.012-.018.026-.036.05-.055-.056-.1-.115-.074-.189a.125.125,0,0,1,.135-.06.225.225,0,0,1,.207.124,1.932,1.932,0,0,1,.069.227c.017.058.032.123-.039.149s-.079-.054-.158-.1Z" transform="translate(-425.701 -520.075)"/>
      <path id="Path_2875" data-name="Path 2875" d="M586.892,706.365a.875.875,0,0,1-.2-.364c-.014-.042-.005-.092-.074-.056-.033.017-.063.071-.108.022a.045.045,0,0,1,.007-.07.147.147,0,0,1,.141-.043.11.11,0,0,1,.072.058,1.333,1.333,0,0,1,.168.452Z" transform="translate(-403.425 -527.971)"/>
      <path id="Path_2876" data-name="Path 2876" d="M593.52,704.815c.166-.14.174-.138.251.039l.045.1.062.132a.25.25,0,0,1-.171-.183c-.036-.092-.074-.149-.187-.089Z" transform="translate(-410.089 -526.895)"/>
      <path id="Path_2877" data-name="Path 2877" d="M600.328,703.486c.172.085.176.263.239.41C600.437,703.79,600.42,703.617,600.328,703.486Z" transform="translate(-416.544 -525.729)"/>
      <path id="Path_2878" data-name="Path 2878" d="M584.968,715.766c.046.014.049.049.049.087a.08.08,0,0,1-.09.086.053.053,0,0,1-.058-.059.168.168,0,0,1,.1-.115Z" transform="translate(-401.886 -537.372)"/>
    </g>
  </svg>
  