<svg xmlns="http://www.w3.org/2000/svg" width="15.221" height="25.863" viewBox="0 0 22.221 25.863">
    <text id="_" data-name="$" transform="translate(8 20.996)" fill="#272727" font-size="11" font-family="Poppins-Medium, Poppins" font-weight="500" letter-spacing="0.04em"><tspan x="0" y="0">$</tspan></text>
    <path id="Path_2827" data-name="Path 2827" d="M157.616,77.077a5.206,5.206,0,0,0,3.113,3.907,8.792,8.792,0,0,0,3.928.882h8.014a8.79,8.79,0,0,0,3.928-.882,5.205,5.205,0,0,0,3.113-3.907c.34-2.231-.7-5.043-3.088-8.357a36.477,36.477,0,0,0-3.263-3.883,1.543,1.543,0,0,0-.433-2.923,5.745,5.745,0,0,0,1.517-3.548.323.323,0,0,0-.323-.323h-1.672a5.1,5.1,0,0,0,.084-1.762.323.323,0,0,0-.32-.279h-7.1a.323.323,0,0,0-.32.279,5.108,5.108,0,0,0,.084,1.762h-1.672a.323.323,0,0,0-.323.323,5.746,5.746,0,0,0,1.517,3.548,1.543,1.543,0,0,0-.433,2.923A36.475,36.475,0,0,0,160.7,68.72c-2.389,3.313-3.428,6.125-3.087,8.357Zm21.456-.1a4.6,4.6,0,0,1-2.764,3.426,8.146,8.146,0,0,1-3.638.813h-8.013a8.143,8.143,0,0,1-3.638-.813,4.6,4.6,0,0,1-2.764-3.426c-.709-4.643,5.624-11.147,6.466-11.988h7.885c.842.841,7.175,7.345,6.466,11.988Zm-5.29-18.291a5.85,5.85,0,0,1-1.717,3.2h-1.5a11.065,11.065,0,0,0,1.711-3.2Zm-8.377-2.04h6.517c.148,2.293-1.746,4.717-2.181,5.241h-2.155c-.435-.524-2.328-2.947-2.181-5.241Zm-.357,2.04a11.062,11.062,0,0,0,1.711,3.2h-1.5a5.826,5.826,0,0,1-1.717-3.2Zm-.417,3.847h8.064a.9.9,0,1,1,0,1.809h-8.064a.9.9,0,1,1,0-1.809Z" transform="translate(-157.553 -56.002)" fill="#272727"/>
  </svg>
  